<svg xmlns="http://www.w3.org/2000/svg" viewBox="0 0 16 16" shape-rendering="crispEdges">
  <g transform="translate(1,1)">
    <g fill="#F4669A">
      <rect x="5" y="0" width="4" height="1"/>
      <rect x="4" y="1" width="6" height="1"/>
      <rect x="3" y="2" width="8" height="1"/>
      <rect x="3" y="3" width="8" height="1"/>
      <rect x="2" y="4" width="10" height="1"/>
      <rect x="2" y="5" width="10" height="1"/>
      <rect x="2" y="6" width="10" height="1"/>
      <rect x="2" y="7" width="10" height="1"/>
      <rect x="1" y="8"  width="1" height="1"/>
      <rect x="2" y="8"  width="1" height="1" opacity="0.7"/>
      <rect x="3" y="8"  width="1" height="1"/>
      <rect x="5" y="8"  width="1" height="1"/>
      <rect x="7" y="8"  width="1" height="1"/>
      <rect x="9" y="8"  width="1" height="1"/>
      <rect x="11" y="8" width="1" height="1"/>
      <rect x="12" y="8" width="1" height="1"/>
      <rect x="0" y="9"  width="1" height="1"/>
      <rect x="3" y="9"  width="1" height="1"/>
      <rect x="5" y="9"  width="1" height="1"/>
      <rect x="7" y="9"  width="1" height="1"/>
      <rect x="9" y="9"  width="1" height="1"/>
      <rect x="12" y="9" width="1" height="1"/>
      <rect x="0" y="10" width="1" height="1"/>
      <rect x="4" y="10" width="1" height="1"/>
      <rect x="5" y="10" width="1" height="1"/>
      <rect x="8" y="10" width="1" height="1"/>
      <rect x="9" y="10" width="1" height="1"/>
      <rect x="13" y="10" width="1" height="1"/>
      <rect x="1" y="11" width="1" height="1"/>
      <rect x="4" y="11" width="1" height="1"/>
      <rect x="8" y="11" width="1" height="1"/>
      <rect x="13" y="11" width="1" height="1"/>
      <rect x="1" y="12" width="1" height="1"/>
      <rect x="4" y="12" width="1" height="1"/>
      <rect x="8" y="12" width="1" height="1"/>
      <rect x="13" y="12" width="1" height="1"/>
      <rect x="1" y="13" width="1" height="1"/>
      <rect x="4" y="13" width="1" height="1"/>
      <rect x="9" y="13" width="1" height="1"/>
      <rect x="13" y="13" width="1" height="1"/>
    </g>
    <g fill="#110D16">
      <rect x="5" y="5" width="1" height="1"/>
      <rect x="8" y="5" width="1" height="1"/>
    </g>
  </g>
</svg>
